<svg id="_icons" xmlns="http://www.w3.org/2000/svg" width="14" height="13.113" viewBox="0 0 14 13.113">
  <path id="Path_54" data-name="Path 54" d="M15.477,5.213a2.667,2.667,0,0,0-2.04-.911H5.06l-.146-.781A.77.77,0,0,0,4.185,3H2.728a.655.655,0,1,0,0,1.3H3.6l.146.781h0l.874,4.556h0l.146.781a2.135,2.135,0,0,0,2.185,1.692h6.994a.655.655,0,1,0,0-1.3H6.954a.836.836,0,0,1-.8-.586V10.16H13a2.564,2.564,0,0,0,2.477-1.627l.437-1.3A2.251,2.251,0,0,0,15.477,5.213ZM14.457,6.84h0l-.437,1.3A1.154,1.154,0,0,1,13,8.858H5.861L5.278,5.6h8.159a1.084,1.084,0,0,1,.874.391A.75.75,0,0,1,14.457,6.84Z" transform="translate(-2 -3)"/>
  <circle id="Ellipse_67" data-name="Ellipse 67" cx="1.5" cy="1.5" r="1.5" transform="translate(3.391 10.113)"/>
  <circle id="Ellipse_68" data-name="Ellipse 68" cx="1.5" cy="1.5" r="1.5" transform="translate(8.818 10.113)"/>
</svg>
