<svg xmlns="http://www.w3.org/2000/svg" xmlns:xlink="http://www.w3.org/1999/xlink" width="18" height="18" viewBox="0 0 18 18">
  <defs>
    <linearGradient id="linear-gradient" y1="0.5" x2="1" y2="0.5" gradientUnits="objectBoundingBox">
      <stop offset="0.002" stop-color="#034a7a"/>
      <stop offset="1" stop-color="#002f49"/>
    </linearGradient>
  </defs>
  <g id="Group_148" data-name="Group 148" transform="translate(-13 -13)">
    <path id="Path_61" data-name="Path 61" d="M18.789,42.684H16.895A1.9,1.9,0,0,1,15,40.789V38.895A1.9,1.9,0,0,1,16.895,37h1.895a1.9,1.9,0,0,1,1.895,1.895v1.895A1.9,1.9,0,0,1,18.789,42.684Z" transform="translate(-1.053 -12.632)" fill="#f2f2f2"/>
    <path id="Path_62" data-name="Path 62" d="M40.789,42.684H38.895A1.9,1.9,0,0,1,37,40.789V38.895A1.9,1.9,0,0,1,38.895,37h1.895a1.9,1.9,0,0,1,1.895,1.895v1.895A1.9,1.9,0,0,1,40.789,42.684Z" transform="translate(-12.632 -12.632)" fill="#d7435c"/>
    <path id="Path_63" data-name="Path 63" d="M18.789,20.684H16.895A1.9,1.9,0,0,1,15,18.789V16.895A1.9,1.9,0,0,1,16.895,15h1.895a1.9,1.9,0,0,1,1.895,1.895v1.895A1.9,1.9,0,0,1,18.789,20.684Z" transform="translate(-1.053 -1.053)" fill="#ffdb41"/>
    <path id="Path_64" data-name="Path 64" d="M40.789,20.684H38.895A1.9,1.9,0,0,1,37,18.789V16.895A1.9,1.9,0,0,1,38.895,15h1.895a1.9,1.9,0,0,1,1.895,1.895v1.895A1.9,1.9,0,0,1,40.789,20.684Z" transform="translate(-12.632 -1.053)" fill="#1c94f9"/>
    <path id="Path_65" data-name="Path 65" d="M17.737,13H15.842A2.85,2.85,0,0,0,13,15.842v1.895a2.85,2.85,0,0,0,2.842,2.842h1.895a2.85,2.85,0,0,0,2.842-2.842V15.842A2.85,2.85,0,0,0,17.737,13Zm.947,4.737a.95.95,0,0,1-.947.947H15.842a.95.95,0,0,1-.947-.947V15.842a.95.95,0,0,1,.947-.947h1.895a.95.95,0,0,1,.947.947Z" fill="url(#linear-gradient)"/>
    <path id="Path_66" data-name="Path 66" d="M39.737,13H37.842A2.85,2.85,0,0,0,35,15.842v1.895a2.85,2.85,0,0,0,2.842,2.842h1.895a.947.947,0,0,0,0-1.895H37.842a.95.95,0,0,1-.947-.947V15.842a.95.95,0,0,1,.947-.947h1.895a.95.95,0,0,1,.947.947v.947a.947.947,0,0,0,1.895,0v-.947A2.85,2.85,0,0,0,39.737,13Z" transform="translate(-11.579)" fill="url(#linear-gradient)"/>
    <path id="Path_67" data-name="Path 67" d="M17.737,35H15.842A2.85,2.85,0,0,0,13,37.842v1.895a2.85,2.85,0,0,0,2.842,2.842h1.895a2.85,2.85,0,0,0,2.842-2.842V37.842A2.85,2.85,0,0,0,17.737,35Zm.947,4.737a.95.95,0,0,1-.947.947H15.842a.95.95,0,0,1-.947-.947V37.842a.95.95,0,0,1,.947-.947h1.895a.95.95,0,0,1,.947.947Z" transform="translate(0 -11.579)" fill="url(#linear-gradient)"/>
    <path id="Path_68" data-name="Path 68" d="M39.737,35H37.842A2.85,2.85,0,0,0,35,37.842v1.895a2.85,2.85,0,0,0,2.842,2.842h1.895a2.85,2.85,0,0,0,2.842-2.842V37.842A2.85,2.85,0,0,0,39.737,35Zm.947,4.737a.95.95,0,0,1-.947.947H37.842a.95.95,0,0,1-.947-.947V37.842a.95.95,0,0,1,.947-.947h1.895a.95.95,0,0,1,.947.947Z" transform="translate(-11.579 -11.579)" fill="url(#linear-gradient)"/>
  </g>
</svg>
