<svg xmlns="http://www.w3.org/2000/svg" width="18" height="18" viewBox="0 0 18 18">
  <g id="Group_149" data-name="Group 149" transform="translate(-3 -3)">
    <path id="Path_69" data-name="Path 69" d="M19.3,16.8A5.951,5.951,0,0,1,14.1,20,9.655,9.655,0,0,1,7,17,10.053,10.053,0,0,1,4,9.9,6.348,6.348,0,0,1,5.7,5.7a7.837,7.837,0,0,1,1.5-1,4.953,4.953,0,0,0-.7,2.7,9.655,9.655,0,0,0,3,7.1,10.053,10.053,0,0,0,7.1,3A4.953,4.953,0,0,0,19.3,16.8Z" fill="#ffa9a9"/>
    <circle id="Ellipse_69" data-name="Ellipse 69" cx="1.5" cy="1.5" r="1.5" transform="translate(8 12)" fill="#ff4d4d"/>
    <circle id="Ellipse_70" data-name="Ellipse 70" cx="1.5" cy="1.5" r="1.5" transform="translate(7 7)" fill="#ff4d4d"/>
    <circle id="Ellipse_71" data-name="Ellipse 71" cx="1.5" cy="1.5" r="1.5" transform="translate(13 14)" fill="#ff4d4d"/>
    <path id="Path_70" data-name="Path 70" d="M18.1,10A4.185,4.185,0,0,1,14,5.9,2.9,2.9,0,0,0,11.1,3H9.9A6.914,6.914,0,0,0,3,9.9,11.139,11.139,0,0,0,14.1,21,6.914,6.914,0,0,0,21,14.1V12.9A2.9,2.9,0,0,0,18.1,10Zm.9,4.1A4.908,4.908,0,0,1,14.1,19,9.133,9.133,0,0,1,5,9.9,4.908,4.908,0,0,1,9.9,5h1.2a.9.9,0,0,1,.9.9A6.061,6.061,0,0,0,18.1,12a.9.9,0,0,1,.9.9Z" fill="#ff4d4d"/>
    <path id="Path_71" data-name="Path 71" d="M18,9a2.946,2.946,0,0,0,3-3,3,3,0,0,0-6,0A2.946,2.946,0,0,0,18,9Zm0-4a.945.945,0,0,1,1,1,1,1,0,0,1-2,0A.945.945,0,0,1,18,5Z" fill="#ff4d4d"/>
  </g>
</svg>
