<svg xmlns="http://www.w3.org/2000/svg" xmlns:xlink="http://www.w3.org/1999/xlink" width="17.331" height="18" viewBox="0 0 17.331 18">
  <defs>
    <linearGradient id="linear-gradient" x1="-0.267" y1="-0.489" x2="-0.263" y2="-0.489" gradientUnits="objectBoundingBox">
      <stop offset="0" stop-color="#cce6ff"/>
      <stop offset="0.36" stop-color="#2684fb"/>
      <stop offset="1" stop-color="#d0e4fc"/>
    </linearGradient>
    <linearGradient id="linear-gradient-2" x1="-0.063" y1="-1.704" x2="-0.061" y2="-1.704" gradientUnits="objectBoundingBox">
      <stop offset="0" stop-color="#7ad5fe"/>
      <stop offset="1" stop-color="#2684fb"/>
    </linearGradient>
    <linearGradient id="linear-gradient-3" x1="-0.55" y1="-0.241" x2="-0.545" y2="-0.241" gradientUnits="objectBoundingBox">
      <stop offset="0" stop-color="#129f00"/>
      <stop offset="0.5" stop-color="#3ec827"/>
      <stop offset="1" stop-color="#79df68"/>
    </linearGradient>
    <linearGradient id="linear-gradient-4" x1="-0.663" y1="-0.957" x2="-0.658" y2="-0.957" gradientUnits="objectBoundingBox">
      <stop offset="0" stop-color="#1a9900"/>
      <stop offset="0.5" stop-color="#55d041"/>
      <stop offset="1" stop-color="#79df68"/>
    </linearGradient>
    <linearGradient id="linear-gradient-5" x1="-4.485" y1="-1.531" x2="-4.461" y2="-1.531" gradientUnits="objectBoundingBox">
      <stop offset="0" stop-color="#0bbc00"/>
      <stop offset="1" stop-color="#79df68"/>
    </linearGradient>
    <linearGradient id="linear-gradient-6" x1="-1.908" y1="-1.006" x2="-1.892" y2="-1.006" gradientUnits="objectBoundingBox">
      <stop offset="0" stop-color="#fff" stop-opacity="0.212"/>
      <stop offset="1" stop-color="#fff" stop-opacity="0"/>
    </linearGradient>
    <linearGradient id="linear-gradient-7" x1="-3.555" y1="-1.005" x2="-3.539" y2="-1.005" xlink:href="#linear-gradient-6"/>
  </defs>
  <g id="Group_152" data-name="Group 152" transform="translate(-22.814 -25.105)">
    <path id="Path_79" data-name="Path 79" d="M76.327,94.834h7.833a1.015,1.015,0,0,1,.4.055l2.05,1.843c.073.066-.1.12-.384.12h-11.8c-.286,0-.462-.054-.394-.12l1.889-1.843A.976.976,0,0,1,76.327,94.834Z" transform="translate(-48.722 -66.372)" fill="#f1f7ff"/>
    <path id="Path_80" data-name="Path 80" d="M84.178,131.432a.483.483,0,0,0-.481-.486H71.8a.484.484,0,0,0-.481.486v12.033a.484.484,0,0,0,.481.486H83.7a.483.483,0,0,0,.481-.486Z" transform="translate(-46.15 -100.846)" fill="url(#linear-gradient)"/>
    <path id="Path_81" data-name="Path 81" d="M40.145,199.9a.484.484,0,0,0-.482-.486H23.3a.484.484,0,0,0-.482.486v4.714a.484.484,0,0,0,.482.486H39.663a.484.484,0,0,0,.482-.486Z" transform="translate(0 -165.945)" fill="url(#linear-gradient-2)"/>
    <g id="Group_151" data-name="Group 151" transform="translate(24.89 34.846)">
      <path id="Path_82" data-name="Path 82" d="M521.71,1865.251a.477.477,0,1,0-.477.483A.486.486,0,0,0,521.71,1865.251Zm3.17-.042a.344.344,0,0,0-.359-.328.357.357,0,0,0-.2.06.821.821,0,1,1-.424-1.549.8.8,0,0,1,.418.119.375.375,0,0,0,.206.06.341.341,0,0,0,.354-.322.279.279,0,0,0-.035-.137,1.149,1.149,0,0,0-.978-.393,1.51,1.51,0,0,0,0,3.021,1.4,1.4,0,0,0,.9-.286A.315.315,0,0,0,524.88,1865.209Zm3.6-.983a1.505,1.505,0,1,0-1.508,1.513A1.451,1.451,0,0,0,528.48,1864.226Zm-.778,0a.734.734,0,1,1-.731-.834A.759.759,0,0,1,527.7,1864.226Zm5.792,1.1v-1.74a.764.764,0,0,0-.837-.87,1.2,1.2,0,0,0-.978.524.753.753,0,0,0-.79-.524,1.24,1.24,0,0,0-.931.447v-.042a.369.369,0,0,0-.365-.369.373.373,0,0,0-.383.369v2.2a.374.374,0,1,0,.748,0v-1.6a.762.762,0,0,1,.589-.34c.306,0,.424.191.424.459v1.478a.377.377,0,0,0,.754,0v-1.6a.754.754,0,0,1,.589-.334c.306,0,.424.191.424.459v1.478a.377.377,0,0,0,.754,0Z" transform="translate(-520.755 -1862.719)" fill="#fff"/>
    </g>
    <path id="Path_83" data-name="Path 83" d="M34.3,204.14a.073.073,0,0,1-.013.145c-2.118,0-4.237-.015-6.355,0a.548.548,0,0,0-.525.532v.695a.074.074,0,0,1-.146,0,3.056,3.056,0,0,1,.041-.928.693.693,0,0,1,.636-.445H34.3Zm-6.962,1.693a.076.076,0,0,1,.069.069c0,.183,0,.366,0,.548,0,.074-.138.1-.146,0,0-.183,0-.366,0-.548A.07.07,0,0,1,27.338,205.833Z" transform="translate(-4.218 -170.417)" fill="rgba(255,255,255,0.38)"/>
    <path id="Path_84" data-name="Path 84" d="M363.216,220.016a.077.077,0,0,1,.067.073c0,.413.075.875-.176,1.151a.642.642,0,0,1-.507.222l-.018,0a.073.073,0,0,1-.021-.011c-.051-.039-.026-.128.065-.131a.545.545,0,0,0,.511-.532v-.695A.076.076,0,0,1,363.216,220.016Zm0-3.176a.066.066,0,0,1,.064.072v2.782c0,.077-.139.105-.146,0v-2.782A.076.076,0,0,1,363.219,216.84Z" transform="translate(-323.357 -182.52)" fill="rgba(0,76,174,0.29)"/>
    <path id="Path_85" data-name="Path 85" d="M111.38,28.9c-.993.55-2.88,1.51-3.47,1.22-.9-1.193-.571-4.181.515-4.97.761-.313,2.359,1.03,3.174,1.786h-.052a.483.483,0,0,0-.479.486v1.022A.486.486,0,0,0,111.38,28.9Zm1.177-1.964c.783-.744,2.344-2.089,3.105-1.775,1.08.785,1.483,3.74.592,4.927-.589.29-2.48-.675-3.464-1.22a.487.487,0,0,0,.243-.423V27.423A.483.483,0,0,0,112.556,26.937Z" transform="translate(-80.468 0)" fill="url(#linear-gradient-3)"/>
    <path id="Path_86" data-name="Path 86" d="M205.516,27.605s2.573-2.668,3.629-2.24c1.1.785,1.505,3.74.6,4.927-.821.4-4.134-1.569-4.134-1.569" transform="translate(-173.924 -0.204)" fill="none"/>
    <path id="Path_87" data-name="Path 87" d="M112.17,27.42s-2.668-2.7-3.729-2.268c-1.1.789-1.432,3.777-.523,4.97.825.4,4.156-1.578,4.156-1.578" transform="translate(-80.514)" fill="none"/>
    <path id="Path_88" data-name="Path 88" d="M132.661,108.221c.39.213.939.5,1.476.729.078,1.07,1.818,2.593,1.818,2.593a2.636,2.636,0,0,1-1.644.527c-1.178-.553-1.883-2.21-2.2-3.165-.319.954-1.024,2.607-2.2,3.158a2.639,2.639,0,0,1-1.644-.526s1.785-1.56,1.82-2.63v0c.48-.215.955-.462,1.306-.654h0a.431.431,0,0,0,.148.026h.909A.429.429,0,0,0,132.661,108.221Zm-1.282.025h0Zm-.01,0h0Zm0,0h0Zm-.007,0h0Zm0,0h0Zm-.01,0h0Zm-.01-.005h0Zm0,0h0Zm-.006,0h0Zm0,0h0Zm1.348,0h0Zm-1.353,0h0Zm0,0h0Zm0,0h0Zm1.37,0h0Zm-1.375,0h0Zm0,0h0Zm1.388,0h0Zm-1.393,0h0Zm0,0h0Zm1.405,0h0Zm-1.41,0,0,0Zm0,0h0Zm1.422,0h0Zm-1.426,0,0,0h0Zm1.429,0h0Zm-1.434,0,0,0h0Zm1.439,0h0Zm-1.443,0,0,0h0Zm1.446,0h0Zm-1.45-.005,0,0,0,0Zm1.456,0h0Zm0,0h0Zm-1.462,0,0,0h0Zm0,0,0,0Zm1.472,0h0Zm0,0h0Zm-1.478,0,0,0h0Zm0,0,0,0h0Zm1.487,0h0Zm0,0h0Zm-1.494,0,0,0h0Zm0,0,0,0h0Zm1.5,0h0l0,0Zm-1.506,0,0,0,0,0Zm1.509,0h0l0,0Zm-1.512,0,0,0h0Zm1.517,0,0,0,0,0Zm-1.521,0,0,0Zm1.524,0h0l0,0Zm0-.005,0,0,0,0Zm-1.532,0,0,0h0Zm0,0,0,0h0Zm1.538,0h0l0,0Zm.005-.005,0,0Zm-1.547,0,0,0v0Zm0,0,0,0h0Zm1.552,0h0l0,0Zm-1.556-.005,0,0,0,0Zm1.561,0,0,0Zm0,0h0l0,0Zm-1.566,0,0,0h0Zm1.57,0,0,0Zm-1.574,0,0,0Zm1.576,0h0l0,0Zm-1.579,0,0,0h0Zm1.584,0,0,0Zm-1.587,0,0,0h0Zm1.589,0h0l0,0Zm-1.592,0,0,0v0Zm1.6,0,0,0Zm-1.6,0v0h0Zm0,0,0,0,0,0Zm1.6,0v0l0,0Zm0-.006,0,0Zm-1.612,0v0h0Zm0,0,0,0h0Zm1.617,0v0l0,0Zm0,0h0l0,0Zm-1.622,0v0h0Zm1.626,0v0l0,0Zm-1.628,0v0h0Zm1.63,0h0l0,0Zm-1.633,0v0Zm1.637,0,0,0,0,0Zm-1.64,0v0h0Zm1.642,0h0l0,0Zm-1.645,0v0Zm1.648,0,0,0,0,0Zm-1.651,0v0h0Zm1.653,0h0l0,0Zm-1.655,0h0Zm1.659-.006,0,0Zm-1.662,0h0Zm1.663,0h0l0,0Zm-1.665,0h0Zm1.669-.006,0,0Zm-1.672,0h0Zm1.673,0h0l0,0Zm-1.675,0h0Zm1.679-.006,0,0Zm0,0h0l0,0Zm-1.685,0h0Zm1.688-.006,0,0Zm-1.69,0h0Zm1.691-.006v0Zm-1.694,0h0Zm1.7-.006,0,0Zm-1.7,0h0Zm1.7-.005v0Zm0-.007,0,0Zm-1.707,0h0Zm1.708-.005v0Zm0-.007,0,0Zm-1.715,0h0Zm1.716-.005v0Zm0-.007,0,0Zm0,0v0Zm0-.007v0Zm0,0v0Zm0,0h0v0Zm0-.007v0Zm0,0h0v0Zm0-.008v0Zm0,0h0v0Zm0-.008v0Zm0,0h0v0Zm0-.008v0Zm0,0v0Zm0-.008v0Zm0,0v0Zm0-.008v0Zm0,0v0Zm0-.008v0Zm0,0v0Zm0-.008v0Zm0,0v0Zm0-.008v0Zm0,0v0Zm0-.008v0Zm0,0v0Zm0-.008v0Zm0,0v0Zm0,0v0Z" transform="translate(-100.4 -78.763)" fill="rgba(38,132,251,0.23)"/>
    <path id="Path_89" data-name="Path 89" d="M203.182,103.83s.716,3.07,2.407,3.863a2.636,2.636,0,0,0,1.644-.527s-1.785-1.562-1.82-2.634-2.231-1.288-2.231-1.288" transform="translate(-171.697 -74.384)" fill="none"/>
    <path id="Path_90" data-name="Path 90" d="M132.314,103.829s-.716,3.065-2.407,3.857a2.639,2.639,0,0,1-1.644-.526s1.785-1.56,1.82-2.63,2.231-1.286,2.231-1.286" transform="translate(-100.38 -74.384)" fill="none"/>
    <path id="Path_91" data-name="Path 91" d="M123.216,94.282c.439.24,1.057.561,1.662.821.088,1.205,2.047,2.921,2.047,2.921a2.969,2.969,0,0,1-1.851.593c-1.327-.622-2.121-2.489-2.48-3.564-.36,1.075-1.153,2.936-2.479,3.556a2.972,2.972,0,0,1-1.851-.592s2.01-1.756,2.05-2.961v0c.541-.242,1.076-.521,1.471-.736h0a.484.484,0,0,0,.167.029h1.024A.483.483,0,0,0,123.216,94.282Zm-1.443.028h0Zm-.012,0h0Zm0,0h0Zm-.008,0h0Zm0,0h0Zm-.011-.005h0Zm-.011-.006h0Zm0,0h0Zm-.007,0h0Zm0,0h0Zm1.518,0h0Zm-1.524,0h0Zm0,0h0Zm0,0h0Zm1.542,0h0Zm-1.548,0h0Zm0,0h0Zm1.563,0h0Zm-1.568,0h0Zm0,0h0Zm1.582,0h0Zm-1.588,0,0,0Zm0,0,0,0h0Zm1.6,0h0Zm-1.606,0,0,0h0Zm1.609,0h0Zm-1.614-.005,0,0h0Zm1.621,0h0Zm-1.625,0,0,0h0Zm1.628,0h0Zm-1.633-.006,0,0,0,0Zm1.639,0h0Zm0,0h0Zm-1.646,0,0,0h0Zm-.005,0,0,0Zm1.657,0h0Zm0,0h0Zm-1.664,0,0,0h0Zm0,0,0,0h0Zm1.675,0h0Zm0,0h0l0,0Zm-1.682,0,0,0,0,0Zm0,0,0,0h0Zm1.692,0h0l0,0Zm-1.7,0,0,0,0,0Zm1.7,0h0l0,0Zm-1.7-.006,0,0h0Zm1.709,0,0,0,0,0Zm-1.713,0,0,0Zm1.716,0h0l0,0Zm.005-.006,0,0,0,0Zm-1.725,0,0,0h0Zm0,0,0,0h0Zm1.732,0h0l0,0Zm.006-.006,0,0Zm-1.742,0,0,0,0,0Zm0,0,0,0h0Zm1.748,0h0l0,0Zm-1.752-.006,0,0,0,0Zm1.757,0,0,0Zm0,0h0l0,0Zm-1.763,0,0,0h0Zm1.768-.005,0,0Zm-1.773,0,0,0Zm1.775,0h0l0,0Zm-1.778,0,0,0h0Zm1.783-.005,0,0Zm-1.787,0,0,0h0Zm1.789,0v0l0,0Zm-1.793,0,0,0v0Zm1.8-.005,0,0Zm-1.8,0,0,0h0Zm0-.005,0,0,0,0Zm1.807,0v0l0,0Zm0-.006,0,0Zm-1.815,0,0,0h0Zm0-.005,0,0h0Zm1.821,0v0l0,0Zm0,0h0l0,0Zm-1.826,0v0h0Zm1.831,0,0,0,0,0Zm-1.834,0v0h0Zm1.836,0h0l0,0Zm-1.839,0v0Zm1.844,0,0,0,0,0Zm-1.846,0v0h0Zm1.849,0h0l0,0Zm-1.852,0v0Zm1.856,0,0,0,0,0Zm-1.859,0v0h0Zm1.861,0h0l0,0Zm-1.863,0v0h0ZM123.4,94.1l0,0Zm-1.871,0v0h0Zm1.873,0h0l0,0Zm-1.875,0h0Zm1.879-.007,0,0Zm-1.883,0h0Zm1.884,0h0l0,0Zm-1.886,0h0Zm1.89-.007,0,0Zm0,0v0l0,0Zm-1.9,0h0Zm1.9-.007,0,0Zm-1.9,0h0Zm1.9-.007v0l0,0Zm-1.908,0h0Zm1.911-.007,0,0Zm-1.913,0h0Zm1.914-.006v0l0,0Zm0-.008,0,0Zm-1.922,0h0Zm1.924-.006v0l0,0Zm0-.008,0,0Zm-1.931,0h0Zm1.933-.006v0l0,0Zm0-.008,0,0Zm0,0v0l0,0Zm0-.008,0,0Zm0,0v0Zm0,0h0l0-.005Zm0-.008v0Zm0,0h0v0Zm0-.009v0Zm0,0h0v0Zm0-.009v0Zm0,0v0Zm0-.009v0Zm0,0v0Zm0-.009v0Zm0,0v0Zm0-.009v0Zm0,0v0Zm0-.009v0Zm0,0v0Zm0-.009v0Zm0,0v0Zm0-.009v0Zm0,0v0Zm0-.009v0Zm0,0v0Zm0-.009v0Zm0,0v0Zm0,0v0Z" transform="translate(-90.886 -65.45)" fill="url(#linear-gradient-4)"/>
    <path id="Path_92" data-name="Path 92" d="M202.63,89.338s.806,3.457,2.711,4.35a2.969,2.969,0,0,0,1.851-.593s-2.01-1.759-2.05-2.966-2.512-1.45-2.512-1.45" transform="translate(-171.175 -60.52)" fill="none"/>
    <path id="Path_93" data-name="Path 93" d="M122.825,89.337s-.806,3.452-2.711,4.343a2.972,2.972,0,0,1-1.851-.592s2.01-1.756,2.05-2.961,2.512-1.448,2.512-1.448" transform="translate(-90.862 -60.52)" fill="none"/>
    <path id="Path_94" data-name="Path 94" d="M186.2,63.3a.486.486,0,0,0-.486-.486h-1.024a.486.486,0,0,0-.486.486v1.022a.486.486,0,0,0,.486.486h1.024a.486.486,0,0,0,.486-.486Z" transform="translate(-153.623 -35.88)" fill="url(#linear-gradient-5)"/>
    <path id="Path_95" data-name="Path 95" d="M124.191,36.379s-2.406-1.445-2.682-1.293-.421.838-.4,1.056a8.993,8.993,0,0,0,2.87.618C124.148,36.68,124.191,36.379,124.191,36.379Z" transform="translate(-93.564 -9.486)" fill="url(#linear-gradient-6)"/>
    <path id="Path_96" data-name="Path 96" d="M225.615,36.38s2.406-1.447,2.682-1.294.421.839.4,1.057a8.984,8.984,0,0,1-2.87.619C225.657,36.682,225.615,36.38,225.615,36.38Z" transform="translate(-193.044 -9.485)" fill="url(#linear-gradient-7)"/>
  </g>
</svg>
