<svg xmlns="http://www.w3.org/2000/svg" width="18" height="18" viewBox="0 0 18 18">
  <g id="Head_phone" data-name="Head phone" transform="translate(-3 -2)">
    <path id="Path_97" data-name="Path 97" d="M7.938,10.456a6.828,6.828,0,0,1,13.642,0,.31.31,0,0,0,.31.3h.627A7.759,7.759,0,1,0,7,10.759h.628A.31.31,0,0,0,7.938,10.456Z" transform="translate(-2.759 -0.69)" fill="#5aaae7"/>
    <path id="Path_98" data-name="Path 98" d="M3.621,45.966H4.862V41H3.621A.621.621,0,0,0,3,41.621v3.724A.621.621,0,0,0,3.621,45.966Z" transform="translate(0 -26.897)" fill="#ffb655"/>
    <path id="Path_99" data-name="Path 99" d="M9,43.9v.31a.621.621,0,0,0,.621.621h1.862a.621.621,0,0,0,.621-.621V38.621A.621.621,0,0,0,11.483,38H9.621A.621.621,0,0,0,9,38.621Z" transform="translate(-4.138 -24.828)" fill="#ff7956"/>
    <path id="Path_100" data-name="Path 100" d="M6.241,36.552V35.31a.31.31,0,0,0-.31-.31H5.31a.31.31,0,0,0-.31.31v1.552H6.241Z" transform="translate(-1.379 -22.759)" fill="#57565c"/>
    <path id="Path_101" data-name="Path 101" d="M55,45.966h1.241a.621.621,0,0,0,.621-.621V41.621A.621.621,0,0,0,56.241,41H55Z" transform="translate(-35.862 -26.897)" fill="#ffb655"/>
    <path id="Path_102" data-name="Path 102" d="M48.1,38.621A.621.621,0,0,0,47.483,38H45.621a.621.621,0,0,0-.621.621v5.586a.621.621,0,0,0,.621.621h1.862a.621.621,0,0,0,.621-.621Z" transform="translate(-28.966 -24.828)" fill="#ff7956"/>
    <path id="Path_103" data-name="Path 103" d="M55,35.31v1.552h1.241V35.31a.31.31,0,0,0-.31-.31H55.31A.31.31,0,0,0,55,35.31Z" transform="translate(-35.862 -22.759)" fill="#57565c"/>
    <path id="Path_104" data-name="Path 104" d="M22.138,12.241h-.621V10.069a7.448,7.448,0,0,0-14.9,0v2.172H6V10.069a8.069,8.069,0,0,1,16.138,0Z" transform="translate(-2.069)" fill="#ff7956"/>
  </g>
</svg>
