<svg xmlns="http://www.w3.org/2000/svg" width="18" height="14.62" viewBox="0 0 18 14.62">
  <g id="Group_153" data-name="Group 153" transform="translate(0 -6.019)">
    <rect id="Rectangle_33" data-name="Rectangle 33" width="16.875" height="11.531" rx="2" transform="translate(0.563 8.263)" fill="#fff"/>
    <circle id="Ellipse_72" data-name="Ellipse 72" cx="5.625" cy="5.625" r="5.625" transform="translate(3.375 6.576)" fill="#ce93d8"/>
    <path id="Path_105" data-name="Path 105" d="M38.078,9.688H36.672a.562.562,0,0,1,.563.563V20.656a.562.562,0,0,1-.562.563h1.406a.562.562,0,0,0,.563-.562V10.25A.562.562,0,0,0,38.078,9.688ZM30.2,8a5.788,5.788,0,0,0-.7.048,5.625,5.625,0,0,1,0,11.154,5.788,5.788,0,0,0,.7.048A5.625,5.625,0,1,0,30.2,8Z" transform="translate(-21.203 -1.424)" opacity="0.1"/>
    <path id="Path_106" data-name="Path 106" d="M30.563,14a.563.563,0,0,0,0,1.125,2.813,2.813,0,0,1,0,5.625.563.563,0,0,0,0,1.125,3.938,3.938,0,0,0,0-7.875Z" transform="translate(-21.563 -5.737)" fill="#fff"/>
    <circle id="Ellipse_73" data-name="Ellipse 73" cx="0.563" cy="0.563" r="0.563" transform="translate(14.625 17.263)" fill="#f4d7d7"/>
    <path id="Path_107" data-name="Path 107" d="M16.313,7.7h-.281V7.138a.563.563,0,0,0-1.125,0V7.7H13.241a6.188,6.188,0,0,0-8.483,0H1.688A1.688,1.688,0,0,0,0,9.388v3.937a.563.563,0,0,0,1.125,0V9.388a.562.562,0,0,1,.563-.562H3.819a6.188,6.188,0,1,0,10.361,0h2.132a.563.563,0,0,1,.563.563v9.563a.563.563,0,0,1-.562.563H1.688a.563.563,0,0,1-.562-.562V15.576a.562.562,0,1,0-1.125,0v3.375a1.688,1.688,0,0,0,1.688,1.688H16.313A1.688,1.688,0,0,0,18,18.951V9.388A1.688,1.688,0,0,0,16.313,7.7ZM9,17.263A5.063,5.063,0,1,1,14.063,12.2,5.063,5.063,0,0,1,9,17.263Z" fill="#1b1464"/>
  </g>
</svg>
