<svg xmlns="http://www.w3.org/2000/svg" width="18" height="18" viewBox="0 0 18 18">
  <g id="Group_157" data-name="Group 157" transform="translate(-5.376 -176.716)">
    <path id="Path_124" data-name="Path 124" d="M23.376,189.6c0,.157,0,.313-.012.468A9.006,9.006,0,0,1,17.6,198a8.712,8.712,0,0,1-.895.291,9.057,9.057,0,0,1-4.666,0,8.712,8.712,0,0,1-.895-.291,9,9,0,0,1-5.76-7.936c-.008-.155-.012-.311-.012-.468s0-.317.012-.475a9.007,9.007,0,0,1,5.764-7.931,8.865,8.865,0,0,1,.9-.291h0a9.065,9.065,0,0,1,4.656,0h0a8.856,8.856,0,0,1,.9.291,9,9,0,0,1,5.764,7.931Q23.376,189.362,23.376,189.6Z" transform="translate(0 -3.884)" fill="#eee"/>
    <path id="Path_125" data-name="Path 125" d="M162.164,189.6c0,.157,0,.313-.012.468a9.006,9.006,0,0,1-5.76,7.936,8.7,8.7,0,0,1-.895.291,9,9,0,0,1-2.333.306c-.281,0-.559-.014-.834-.039a8.965,8.965,0,0,0,1.5-.267,8.7,8.7,0,0,0,.895-.291,9.03,9.03,0,0,0,4.32-3.5c.016-.024.031-.048.046-.072a8.937,8.937,0,0,0,1.395-4.365c.008-.155.012-.311.012-.468s0-.317-.012-.475c0-.063-.007-.127-.012-.19a9,9,0,0,0-5.752-7.741,8.857,8.857,0,0,0-.9-.291h0a9.018,9.018,0,0,0-1.494-.265l.207-.017.1-.007.1-.006c.07,0,.14-.006.21-.007l.089,0h.121a9,9,0,0,1,2.328.3h0a8.853,8.853,0,0,1,.9.291,9,9,0,0,1,5.764,7.931Q162.164,189.36,162.164,189.6Z" transform="translate(-138.788 -3.883)" fill="#dedede"/>
    <path id="Path_126" data-name="Path 126" d="M17.6,181.195a.413.413,0,0,1-.147.2l-2.66,1.932-.172.125a.418.418,0,0,1-.49,0l-.172-.125-2.66-1.932a.413.413,0,0,1-.147-.2,8.857,8.857,0,0,1,.9-.291h0a9.066,9.066,0,0,1,4.656,0h0A8.857,8.857,0,0,1,17.6,181.195Zm-9.15,6.737-.2.143-2.635,1.914a.41.41,0,0,1-.23.079c-.008-.155-.012-.311-.012-.468s0-.317.012-.475a8.974,8.974,0,0,1,1.991-5.187.408.408,0,0,1,.14.2l1.025,3.154.057.175A.416.416,0,0,1,8.45,187.932Zm3.593,10.363a8.712,8.712,0,0,1-.895-.291,9.03,9.03,0,0,1-4.32-3.5.414.414,0,0,1,.233-.072h3.5a.417.417,0,0,1,.4.288l.072.222,1.009,3.106A.41.41,0,0,1,12.043,198.294Zm9.88-3.79A9.03,9.03,0,0,1,17.6,198a8.712,8.712,0,0,1-.895.291.41.41,0,0,1,0-.245l1.009-3.106.072-.222a.417.417,0,0,1,.4-.288h3.5A.414.414,0,0,1,21.923,194.5Zm1.453-4.9c0,.157,0,.313-.012.468a.411.411,0,0,1-.23-.079L20.5,188.075l-.2-.143a.416.416,0,0,1-.151-.466l.057-.175,1.025-3.154a.408.408,0,0,1,.14-.2,8.974,8.974,0,0,1,1.991,5.187Q23.376,189.361,23.376,189.6Z" transform="translate(0 -3.884)" fill="#676e87"/>
    <path id="Path_127" data-name="Path 127" d="M156.387,181.194a.413.413,0,0,1-.147.2l-.427.31a8.959,8.959,0,0,0-1.093-.506,8.865,8.865,0,0,0-.9-.291h0a9.02,9.02,0,0,0-1.494-.265l.207-.017.1-.007.1-.006c.07,0,.139-.006.209-.007l.089,0h.121a9.006,9.006,0,0,1,2.328.3h0A8.865,8.865,0,0,1,156.387,181.194Zm4.324,13.31a9.03,9.03,0,0,1-4.32,3.5,8.707,8.707,0,0,1-.895.291.41.41,0,0,1,0-.245l.151-.464a9.035,9.035,0,0,0,3.393-3.081c.016-.024.031-.048.046-.072h1.388A.414.414,0,0,1,160.711,194.5Zm1.453-4.9c0,.157,0,.313-.012.468a.411.411,0,0,1-.23-.079l-1.449-1.053a8.944,8.944,0,0,0-.921-3.355l.469-1.443a.408.408,0,0,1,.14-.2,8.974,8.974,0,0,1,1.991,5.187Q162.164,189.36,162.164,189.6Z" transform="translate(-138.788 -3.883)" fill="#595f74"/>
    <path id="Path_128" data-name="Path 128" d="M55.36,222.8a.417.417,0,0,1-.417-.417V218.7a.417.417,0,0,1,.834,0v3.691a.417.417,0,0,1-.417.417Zm3.814,8.048a.416.416,0,0,1-.317-.146l-2.038-2.383a.417.417,0,1,1,.634-.542l2.038,2.383a.417.417,0,0,1-.317.688Zm-7.629,0a.417.417,0,0,1-.317-.688l2.114-2.472a.417.417,0,0,1,.634.542l-2.114,2.472A.416.416,0,0,1,51.546,230.852Zm6.646-5.742a.417.417,0,0,1-.172-.8l3.34-1.512a.417.417,0,1,1,.344.759l-3.34,1.512A.416.416,0,0,1,58.192,225.11Zm-5.807-.065a.415.415,0,0,1-.172-.037l-3.2-1.447a.417.417,0,0,1,.344-.759l3.2,1.447a.417.417,0,0,1-.172.8Z" transform="translate(-40.984 -39.47)" fill="#676e87"/>
    <path id="Path_129" data-name="Path 129" d="M108.576,283.384l-3.457,2.512,1.32,4.064h4.273l1.32-4.064Z" transform="translate(-94.2 -100.956)" fill="#676e87"/>
  </g>
</svg>
