<svg xmlns="http://www.w3.org/2000/svg" width="18" height="16.043" viewBox="0 0 18 16.043">
  <g id="Group_162" data-name="Group 162" transform="translate(3)">
    <ellipse id="Ellipse_74" data-name="Ellipse 74" cx="7.75" cy="7.723" rx="7.75" ry="7.723" transform="translate(-2)"/>
    <g id="Group_161" data-name="Group 161" transform="translate(-3)">
      <g id="Group_160" data-name="Group 160">
        <g id="Group_159" data-name="Group 159" transform="translate(0.761)">
          <rect id="Rectangle_34" data-name="Rectangle 34" width="16.5" height="9" transform="translate(0.239)" fill="#3b99c9"/>
          <rect id="Rectangle_35" data-name="Rectangle 35" width="16.478" height="4.565" transform="translate(0 2.473)"/>
          <rect id="Rectangle_36" data-name="Rectangle 36" width="16.478" height="4.565" transform="translate(0 2.473)" fill="#ffb003"/>
          <rect id="Rectangle_37" data-name="Rectangle 37" width="16.5" height="4" transform="translate(0.239 5)"/>
          <rect id="Rectangle_38" data-name="Rectangle 38" width="16.5" height="4" transform="translate(0.239 5)" fill="#50be3d"/>
          <g id="Group_158" data-name="Group 158" transform="translate(0 6.658)">
            <rect id="Rectangle_39" data-name="Rectangle 39" width="16.478" height="4.565"/>
            <rect id="Rectangle_40" data-name="Rectangle 40" width="16.478" height="4.565" fill="#f26d5f"/>
          </g>
        </g>
        <path id="Path_130" data-name="Path 130" d="M0,23H18v5.326a1.544,1.544,0,0,1-1.565,1.522H1.565A1.544,1.544,0,0,1,0,28.326Zm5.427,0c1.684,0,1.871,2.13,3.555,2.13S10.853,23,12.537,23Z" transform="translate(0 -13.804)"/>
        <path id="Path_131" data-name="Path 131" d="M0,23H18v5.326a1.544,1.544,0,0,1-1.565,1.522H1.565A1.544,1.544,0,0,1,0,28.326Zm5.427,0c1.684,0,1.871,2.13,3.555,2.13S10.853,23,12.537,23Z" transform="translate(0 -13.804)" fill="#d9d6cc"/>
      </g>
    </g>
  </g>
</svg>
