<svg xmlns="http://www.w3.org/2000/svg" width="18.002" height="18" viewBox="0 0 18.002 18">
  <g id="Group_163" data-name="Group 163" transform="translate(0.002)">
    <path id="Path_132" data-name="Path 132" d="M15.6,3.69h0l-.033-.032c-.011-.011-.023-.028-.035-.041-.082-.086-.169-.162-.256-.244-.107-.1-.21-.209-.322-.307s-.208-.166-.312-.249-.231-.188-.354-.275-.225-.145-.338-.217-.25-.164-.38-.238-.242-.123-.363-.185-.263-.137-.4-.2-.261-.1-.394-.151S12.143,1.448,12,1.4s-.281-.077-.421-.113-.278-.079-.421-.108-.295-.048-.443-.071-.285-.049-.43-.064-.3-.017-.457-.024C9.7,1.015,9.571,1,9.438,1h-.1c-.134,0-.263.018-.394.026-.153.008-.307.012-.457.029s-.286.045-.428.069-.3.044-.444.077-.281.075-.422.113-.281.072-.416.118-.276.105-.413.159-.262.1-.388.155-.266.134-.4.2-.244.12-.36.188-.253.161-.378.243-.225.142-.334.22-.234.185-.35.281-.21.164-.309.252-.214.206-.319.311c-.083.083-.173.16-.253.246h0c-.023.025-.049.047-.072.072A8.364,8.364,0,0,0,1,9.437c0,.034,0,.066,0,.1a8.444,8.444,0,0,0,8.367,8.33c.024,0,.047.008.07.008s.021,0,.031,0h.069a8.449,8.449,0,0,0,8.333-8.434c0-.034,0-.066,0-.1A8.362,8.362,0,0,0,15.6,3.69Z" transform="translate(-0.439 -0.438)" fill="#00ddc2"/>
    <path id="Path_133" data-name="Path 133" d="M15.585,2.885c0-.005,0-.012-.009-.016l-.034-.033c-.011-.011-.026-.031-.04-.046-.089-.094-.188-.176-.281-.266-.119-.112-.235-.233-.36-.34-.091-.078-.188-.147-.281-.222-.152-.12-.3-.242-.461-.353-.065-.044-.133-.082-.2-.125-.2-.128-.394-.254-.6-.367-.031-.017-.065-.031-.1-.048-.242-.129-.489-.25-.742-.357L12.467.706a9.039,9.039,0,0,0-1.732-.53c-.029-.006-.056-.008-.087-.013-.266-.05-.534-.092-.806-.118-.1-.01-.2-.009-.306-.016C9.358.017,9.18,0,9,0c-.018,0-.036,0-.056,0H8.89c-.141,0-.281.019-.421.027s-.3.012-.45.029S7.7.107,7.546.133,7.253.176,7.11.207,6.8.288,6.643.33,6.362.4,6.223.447s-.3.112-.454.169c-.134.052-.271.1-.4.157-.15.066-.294.145-.44.219-.126.064-.254.123-.377.193-.145.083-.281.177-.424.268-.117.075-.236.146-.349.225-.138.1-.268.208-.4.314-.107.086-.218.169-.322.259-.127.112-.244.234-.364.353-.089.088-.183.169-.269.261,0,0,0,.01-.008.014-.02.021-.042.04-.062.061A9,9,0,0,0,9,18h.108a8.894,8.894,0,0,0,.926-.06A9,9,0,0,0,15.587,2.886ZM15.074,13.99a11.948,11.948,0,0,0-2.108-.668,16.534,16.534,0,0,0,.519-3.76H16.85a7.784,7.784,0,0,1-1.776,4.428Zm-.832.879-.007.006c-.188.169-.384.324-.586.472-.065.048-.134.091-.2.136-.142.1-.285.194-.433.281-.083.05-.169.094-.253.141-.138.075-.277.148-.418.214-.092.043-.184.084-.277.123-.142.06-.285.116-.43.169l-.069.024A8.43,8.43,0,0,0,12.617,14.4a11.7,11.7,0,0,1,1.627.465ZM5.814,16.191c-.133-.06-.263-.124-.394-.191-.095-.048-.19-.1-.281-.148-.137-.078-.27-.163-.4-.249-.079-.052-.161-.1-.238-.154-.181-.127-.356-.263-.526-.406-.024-.02-.05-.037-.074-.056a11.54,11.54,0,0,1,1.528-.48,8.282,8.282,0,0,0,1.012,1.924c-.106-.037-.211-.074-.315-.113s-.21-.085-.312-.129ZM2.987,3.938a11.861,11.861,0,0,0,2.064.682,16.474,16.474,0,0,0-.539,3.818H1.148a7.779,7.779,0,0,1,1.839-4.5ZM4.382,2.628c.025-.019.053-.034.079-.053.181-.128.366-.249.556-.361.076-.045.155-.084.233-.126.145-.078.29-.155.439-.225.091-.042.185-.08.277-.119.141-.056.281-.116.426-.169l.042-.013A8.331,8.331,0,0,0,5.4,3.544a11.608,11.608,0,0,1-1.575-.471c.18-.155.363-.305.555-.444Zm7.845-.8c.141.064.281.132.416.2.087.046.173.091.258.139.138.079.273.165.407.253.077.051.156.1.231.152.143.1.281.21.417.321.06.049.123.095.181.145.012.01.022.022.034.032a11.608,11.608,0,0,1-1.575.471,8.353,8.353,0,0,0-1.031-1.978c.13.045.259.092.387.143C12.044,1.749,12.136,1.788,12.227,1.829Zm-3.79-.57V3.926a16.785,16.785,0,0,1-1.907-.169A4.494,4.494,0,0,1,8.437,1.258Zm0,3.791V8.438h-2.8a15.106,15.106,0,0,1,.527-3.6,17.781,17.781,0,0,0,2.273.208Zm0,4.514v3.4a17.791,17.791,0,0,0-2.261.24,15.049,15.049,0,0,1-.538-3.637Zm0,4.52v2.66A4.455,4.455,0,0,1,6.545,14.28a16.678,16.678,0,0,1,1.892-.2Zm1.125-.02a16.417,16.417,0,0,1,1.923.141,4.526,4.526,0,0,1-1.923,2.539Zm0-1.125V9.563h2.8a15.14,15.14,0,0,1-.514,3.552,17.258,17.258,0,0,0-2.285-.173Zm0-4.5V5.049a17.781,17.781,0,0,0,2.273-.208,15.106,15.106,0,0,1,.526,3.6Zm0-4.511V1.258a4.491,4.491,0,0,1,1.907,2.5,16.785,16.785,0,0,1-1.907.17ZM4.513,9.563a16.415,16.415,0,0,0,.556,3.873,11.838,11.838,0,0,0-2.022.7A7.779,7.779,0,0,1,1.152,9.563Zm8.973-1.125a16.474,16.474,0,0,0-.539-3.817,11.887,11.887,0,0,0,2.067-.683,7.782,7.782,0,0,1,1.833,4.5Z" fill="#00b6bd"/>
  </g>
</svg>
