<svg id="Group_311" data-name="Group 311" xmlns="http://www.w3.org/2000/svg" width="24" height="24" viewBox="0 0 24 24">
  <path id="Path_231" data-name="Path 231" d="M0,0H24V24H0Z" fill="none"/>
  <path id="Path_232" data-name="Path 232" d="M14,1H10a1,1,0,0,0,0,2h4a1,1,0,0,0,0-2ZM12,14a1,1,0,0,0,1-1V9a1,1,0,0,0-2,0v4A1,1,0,0,0,12,14Zm7.03-6.61.75-.75a.993.993,0,0,0,0-1.4l-.01-.01a.993.993,0,0,0-1.4,0l-.75.75A8.962,8.962,0,0,0,12,4a9.1,9.1,0,0,0-9,8.76A9,9,0,1,0,19.03,7.39ZM12,20a7,7,0,1,1,7-7A6.995,6.995,0,0,1,12,20Z" fill="#777e90"/>
</svg>
