<svg xmlns="http://www.w3.org/2000/svg" width="14.3" height="14.3" viewBox="0 0 14.3 14.3">
  <g id="Group_147" data-name="Group 147" transform="translate(-1.993 -1.92)">
    <path id="Path_56" data-name="Path 56" d="M9.141,16.07a7,7,0,1,1,4.951-2.047A6.977,6.977,0,0,1,9.141,16.07Zm0-12.88A5.882,5.882,0,1,0,13.3,4.913,5.841,5.841,0,0,0,9.142,3.19Z" transform="translate(0 0)" fill="#161f30" stroke="#161f30" stroke-width="0.3"/>
    <path id="Path_57" data-name="Path 57" d="M9.955,15.2a.56.56,0,0,1-.4-.956l4.753-4.753a.56.56,0,0,1,.792.792l-4.753,4.753a.556.556,0,0,1-.4.164Z" transform="translate(-3.189 -3.193)" fill="#161f30"/>
    <path id="Path_58" data-name="Path 58" d="M14.708,15.2a.558.558,0,0,1-.4-.164L9.559,10.284a.56.56,0,0,1,.792-.792L15.1,14.245a.56.56,0,0,1-.4.956Z" transform="translate(-3.19 -3.193)" fill="#161f30"/>
  </g>
</svg>
