<svg xmlns="http://www.w3.org/2000/svg" width="10" height="9.999" viewBox="0 0 10 9.999">
  <g id="Path_158" data-name="Path 158" transform="translate(-3.494 -3.496)" fill="#fff">
    <path d="M 12.42885208129883 13.244948387146 C 12.21383190155029 13.244948387146 12.00367164611816 13.15738868713379 11.85226154327393 13.00472831726074 L 8.49420166015625 9.641339302062988 L 5.135561466217041 13.0053186416626 C 4.984741687774658 13.15738868713379 4.774581432342529 13.244948387146 4.55955171585083 13.244948387146 C 4.344531536102295 13.244948387146 4.134371757507324 13.15738868713379 3.982961654663086 13.00471878051758 C 3.831761598587036 12.85476875305176 3.74420166015625 12.64460849761963 3.74420166015625 12.42959880828857 C 3.74420166015625 12.21456813812256 3.831761598587036 12.00440788269043 3.984431743621826 11.85299873352051 L 7.347810745239258 8.494948387145996 L 3.983831644058228 5.136308193206787 C 3.829871654510498 4.982348442077637 3.745161771774292 4.777838230133057 3.745161771774292 4.560308456420898 C 3.745161771774292 4.34276819229126 3.829871654510498 4.138258457183838 3.983691692352295 3.984438419342041 C 4.137511730194092 3.830618381500244 4.342021465301514 3.745908260345459 4.559561729431152 3.745908260345459 C 4.777091503143311 3.745908260345459 4.981601715087891 3.830618381500244 5.135421752929688 3.984438419342041 L 8.49420166015625 7.348556995391846 L 11.8528413772583 3.984578371047974 C 12.00680160522461 3.830618381500244 12.21131134033203 3.745908260345459 12.42885208129883 3.745908260345459 C 12.64638137817383 3.745908260345459 12.85089206695557 3.830618381500244 13.00471210479736 3.984438419342041 C 13.15853118896484 4.138258457183838 13.24324131011963 4.34276819229126 13.24324131011963 4.560308456420898 C 13.24324131011963 4.777838230133057 13.15853118896484 4.982348442077637 13.00471210479736 5.136168479919434 L 9.640592575073242 8.494948387145996 L 13.00457191467285 11.85358810424805 C 13.15664196014404 12.00441837310791 13.24420166015625 12.21457862854004 13.24420166015625 12.42959880828857 C 13.24420166015625 12.64460849761963 13.15664196014404 12.85476875305176 13.003981590271 13.00617790222168 C 12.85402202606201 13.15738868713379 12.64386177062988 13.244948387146 12.42885208129883 13.244948387146 Z" stroke="none"/>
    <path d="M 12.42885208129883 12.994948387146 C 12.57872200012207 12.994948387146 12.72239208221436 12.93508815765381 12.82793140411377 12.82867813110352 C 12.93434143066406 12.7231388092041 12.99420166015625 12.57946872711182 12.99420166015625 12.42959880828857 C 12.99420166015625 12.27971839904785 12.93434143066406 12.13604831695557 12.82793140411377 12.03050804138184 L 9.286751747131348 8.494948387145996 L 12.82793140411377 4.959388256072998 C 13.04834175109863 4.738978385925293 13.04834175109863 4.381628513336182 12.82793140411377 4.161218166351318 C 12.60752296447754 3.940809965133667 12.25017356872559 3.940808296203613 12.02976131439209 4.161218166351318 L 8.49420166015625 7.702398300170898 L 4.958641529083252 4.161218166351318 C 4.738232135772705 3.94080924987793 4.380881786346436 3.940808296203613 4.160471439361572 4.161218166351318 C 3.940061569213867 4.381628513336182 3.940061569213867 4.738978385925293 4.160471439361572 4.959388256072998 L 7.701651573181152 8.494948387145996 L 4.160471439361572 12.03050804138184 C 4.054051876068115 12.13604831695557 3.99420166015625 12.27971839904785 3.99420166015625 12.42959880828857 C 3.99420166015625 12.57946872711182 4.054061889648438 12.7231388092041 4.160471439361572 12.82867813110352 C 4.266011714935303 12.93509864807129 4.409681797027588 12.994948387146 4.55955171585083 12.994948387146 C 4.709431648254395 12.994948387146 4.85310173034668 12.93509864807129 4.958641529083252 12.82867813110352 L 8.49420166015625 9.287498474121094 L 12.02976131439209 12.82867813110352 C 12.13530158996582 12.93508815765381 12.27897167205811 12.994948387146 12.42885208129883 12.994948387146 M 12.42885208129883 13.494948387146 C 12.14764213562012 13.494948387146 11.8727912902832 13.38043880462646 11.67476177215576 13.18077850341797 L 8.49420166015625 9.995161056518555 L 5.312471866607666 13.1819486618042 C 5.115641593933105 13.38042831420898 4.840781688690186 13.494948387146 4.55955171585083 13.494948387146 C 4.278331756591797 13.494948387146 4.003471851348877 13.38042831420898 3.805451631546021 13.18075847625732 C 3.608711719512939 12.9856481552124 3.49420166015625 12.7107982635498 3.49420166015625 12.42959880828857 C 3.49420166015625 12.1483678817749 3.608721733093262 11.87350845336914 3.808391571044922 11.67548847198486 L 6.993988990783691 8.494948387145996 L 3.807201623916626 5.313218116760254 C 3.391911745071411 4.897938251495361 3.391911745071411 4.222668170928955 3.806921720504761 3.807668447494507 C 4.007981777191162 3.606618404388428 4.275271892547607 3.495908260345459 4.559561729431152 3.495908260345459 C 4.84386157989502 3.495908260345459 5.111151695251465 3.60662841796875 5.312191486358643 3.807668447494507 L 8.49420166015625 6.994735717773438 L 11.67593193054199 3.807948350906372 C 11.87727165222168 3.606618404388428 12.14456176757812 3.495908260345459 12.42885208129883 3.495908260345459 C 12.7131519317627 3.495908260345459 12.98044204711914 3.60662841796875 13.18148136138916 3.807668447494507 C 13.59649181365967 4.222668170928955 13.59649181365967 4.897938251495361 13.18148136138916 5.312938213348389 L 9.994414329528809 8.494948387145996 L 13.18120193481445 11.67667865753174 C 13.37969207763672 11.87353801727295 13.49420166015625 12.14838790893555 13.49420166015625 12.42959880828857 C 13.49420166015625 12.7107982635498 13.37969207763672 12.9856481552124 13.18003177642822 13.18367862701416 C 12.98490142822266 13.38043880462646 12.71005153656006 13.494948387146 12.42885208129883 13.494948387146 Z" stroke="none" fill="#fff"/>
  </g>
</svg>
