<svg xmlns="http://www.w3.org/2000/svg" width="14" height="13.125" viewBox="0 0 14 13.125">
  <g id="_001-dislike" data-name="001-dislike" transform="translate(0 -0.75)">
    <path id="Path_3632" data-name="Path 3632" d="M20.479,1H19.021A1.022,1.022,0,0,0,18,2.021V8.729A1.022,1.022,0,0,0,19.021,9.75h1.458A1.022,1.022,0,0,0,21.5,8.729V2.021A1.022,1.022,0,0,0,20.479,1Z" transform="translate(-7.5 -0.104)" fill="#e20"/>
    <path id="Path_3633" data-name="Path 3633" d="M2.986.75a2.329,2.329,0,0,0-2.3,1.937L.034,6.478a2.332,2.332,0,0,0,2.3,2.73H5.086a5.633,5.633,0,0,0-.438,2.333,2.142,2.142,0,0,0,1.9,2.333c.583,0,.875-.292.875-1.75,0-1.386,1.342-2.5,2.206-3.076V1.823A13.6,13.6,0,0,0,3.919.75Z" transform="translate(0)" fill="#e20"/>
  </g>
</svg>
