<svg xmlns="http://www.w3.org/2000/svg" width="12.322" height="20" viewBox="0 0 12.322 20">
  <g id="Group_16" data-name="Group 16" transform="translate(-457 -656)">
    <g id="Group_15" data-name="Group 15" transform="translate(-206 55)">
      <g id="Page-1" transform="translate(663 601)">
        <g id="crypto" transform="translate(0 0)">
          <g id="Etherium" transform="translate(0 0)">
            <g id="Group" transform="translate(0 0)">
              <path id="Shape" d="M6.693.8V8.162a.068.068,0,0,1-.063.063c-.221.095-.411.19-.632.284-.284.126-.6.253-.885.411L4.07,9.394l-.853.379-1.043.474c-.284.126-.569.253-.885.411-.221.095-.474.221-.7.316-.032,0-.032.032-.063,0H.5c.095-.158.19-.284.284-.442.506-.853,1.043-1.706,1.548-2.559C2.87,7.056,3.438,6.14,3.976,5.223,4.481,4.37,4.987,3.517,5.492,2.7,5.871,2.064,6.25,1.464,6.6.832,6.661.832,6.661.8,6.693.8h0Z" transform="translate(-0.5 -0.8)" fill="#8a92b2"/>
              <path id="Shape-2" data-name="Shape" d="M26.161,26.98c-.474.316-.979.6-1.453.885-1.548.916-3.065,1.8-4.613,2.717-.032,0-.032.032-.063.032A.031.031,0,0,1,20,30.582V24.232c0-.032.032-.032.063-.032.126.063.253.126.411.19.379.19.79.348,1.169.537.348.158.664.316,1.011.442.348.158.664.316,1.011.474.284.126.6.253.885.411.284.126.6.253.885.411.221.095.442.221.7.316C26.13,26.949,26.13,26.98,26.161,26.98Z" transform="translate(-13.839 -16.807)" fill="#454a75"/>
              <path id="Shape-3" data-name="Shape" d="M6.761,45.426h0c-.032,0-.032,0-.063-.032-.632-.885-1.232-1.738-1.864-2.622l-1.9-2.654c-.6-.853-1.232-1.706-1.833-2.591l-.474-.664c0-.032-.032-.032-.032-.063.032,0,.032.032.063.032.853.506,1.738,1.011,2.591,1.517.979.6,1.991,1.169,2.97,1.769.158.095.348.19.506.284.032,0,.032.032.032.063Z" transform="translate(-0.568 -25.426)" fill="#8a92b2"/>
              <path id="Shape-4" data-name="Shape" d="M.6,33Z" transform="translate(-0.568 -22.826)" fill="gray"/>
              <path id="Shape-5" data-name="Shape" d="M.7,26.944h0c.316-.158.632-.284.948-.442l1.232-.569c.316-.158.632-.284.948-.442.442-.221.916-.411,1.359-.632.316-.126.632-.284.948-.411a6.315,6.315,0,0,0,.664-.316c.032,0,.032-.032.063-.032v6.446c-.032.032-.032,0-.063,0a1.764,1.764,0,0,1-.253-.158L.763,26.975A.1.1,0,0,0,.7,26.944Z" transform="translate(-0.637 -16.738)" fill="#62688f"/>
              <path id="Shape-6" data-name="Shape" d="M26.2,36.8c0,.032,0,.032-.032.063-1.833,2.591-3.665,5.15-5.5,7.741-.19.284-.379.537-.569.821V40.4c.411-.253.821-.506,1.232-.727l4.834-2.844A.031.031,0,0,1,26.2,36.8Z" transform="translate(-13.907 -25.426)" fill="#62688f"/>
              <path id="Shape-7" data-name="Shape" d="M20.1,8.262V.9l6.066,10.047c.032.032.063.063.063.095-.126-.063-.253-.126-.411-.19s-.316-.158-.474-.221a3.278,3.278,0,0,0-.316-.126c-.158-.063-.348-.158-.506-.221-.095-.032-.19-.095-.284-.126l-.664-.284c-.126-.063-.221-.095-.348-.158-.158-.063-.316-.158-.474-.221-.095-.032-.19-.095-.284-.126l-.664-.284c-.126-.063-.221-.095-.348-.158-.158-.063-.316-.158-.474-.221-.095-.063-.221-.095-.316-.158L20.1,8.262Z" transform="translate(-13.907 -0.868)" fill="#62688f"/>
            </g>
          </g>
        </g>
      </g>
    </g>
  </g>
</svg>
