<svg xmlns="http://www.w3.org/2000/svg" width="20" height="19" viewBox="0 0 20 19">
  <g id="Iconly_Bulk_Heart" data-name="Iconly/Bulk/Heart" transform="translate(-2 -3)">
    <g id="Heart" transform="translate(2 3)">
      <path id="Path_34179" d="M9.776,18.837A36.257,36.257,0,0,1,3.448,13.88a12.668,12.668,0,0,1-3.031-4.8C-.72,5.535.6,1.489,4.3.288A6.282,6.282,0,0,1,10.007,1.3h0A6.291,6.291,0,0,1,15.713.288c3.7,1.2,5.03,5.247,3.893,8.787a12.67,12.67,0,0,1-3.013,4.8,36.584,36.584,0,0,1-6.328,4.958L10.016,19Z" fill="#1c80ef" opacity="0.4"/>
      <path id="Path_34178" d="M10.011,19l-.235-.163A36.317,36.317,0,0,1,3.439,13.88a12.667,12.667,0,0,1-3.049-4.8C-.738,5.535.586,1.489,4.283.288a6.3,6.3,0,0,1,5.728,1.022Z" fill="#e1e9fe"/>
      <path id="Path_34180" d="M16.23,7h0a.719.719,0,0,1-.517-.278.818.818,0,0,1-.167-.591h0a1.646,1.646,0,0,0-.994-1.59.787.787,0,0,1-.53-.947.725.725,0,0,1,.864-.574.384.384,0,0,1,.139.052A3.2,3.2,0,0,1,17,6.226a.808.808,0,0,1-.229.56A.708.708,0,0,1,16.23,7Z"/>
    </g>
  </g>
</svg>
