<svg xmlns="http://www.w3.org/2000/svg" width="14.4" height="18" viewBox="0 0 14.4 18">
  <path id="Path_42" data-name="Path 42" d="M13.9,14.6H8.5a.9.9,0,0,0,0,1.8h5.4a.9.9,0,0,0,0-1.8ZM8.5,9.2h.9a.9.9,0,1,0,0-1.8H8.5a.9.9,0,1,0,0,1.8ZM13.9,11H8.5a.9.9,0,0,0,0,1.8h5.4a.9.9,0,0,0,0-1.8Zm4.239,2.961a.9.9,0,0,0-.3-.189.828.828,0,0,0-.684,0,.9.9,0,0,0-.3.189,1.035,1.035,0,0,0-.189.3.891.891,0,0,0,1.17,1.17,1.035,1.035,0,0,0,.3-.189.9.9,0,0,0,.189-.981,1.035,1.035,0,0,0-.189-.3ZM18.4,8.246A1.179,1.179,0,0,0,18.346,8V7.922a.963.963,0,0,0-.171-.252h0l-5.4-5.4h0a.963.963,0,0,0-.252-.171.288.288,0,0,0-.081,0,.792.792,0,0,0-.3-.1H6.7A2.7,2.7,0,0,0,4,4.7V17.3A2.7,2.7,0,0,0,6.7,20h7.2a.9.9,0,0,0,0-1.8H6.7a.9.9,0,0,1-.9-.9V4.7a.9.9,0,0,1,.9-.9h4.5V6.5a2.7,2.7,0,0,0,2.7,2.7h2.7V11a.9.9,0,0,0,1.8,0V8.246ZM13.9,7.4a.9.9,0,0,1-.9-.9V5.069L15.331,7.4Zm3.6,9a.9.9,0,0,0-.9.9v1.8a.9.9,0,1,0,1.8,0V17.3A.9.9,0,0,0,17.5,16.4Z" transform="translate(-4 -2)" fill="#161f30"/>
</svg>
