<svg xmlns="http://www.w3.org/2000/svg" xmlns:xlink="http://www.w3.org/1999/xlink" width="36" height="36" viewBox="0 0 36 36">
  <defs>
    <clipPath id="clip-path">
      <path id="path18" d="M0-47.5H36v36H0Z" transform="translate(0 47.5)"/>
    </clipPath>
    <clipPath id="clip-path-2">
      <path id="path30" d="M18.21-37.553c-2.8.219-5.368-2.408-4.42-6.671h0A7.282,7.282,0,0,0,11.58-35.7h0c.986,2.565-.04,4.7-2.448,4.934h0c-2.69.265-4.184-2.882-2.806-7.894h0A16.045,16.045,0,0,0,2.5-28.237h0A16.105,16.105,0,0,0,18.605-12.132h0A16.105,16.105,0,0,0,34.711-28.237h0a16.064,16.064,0,0,0-.985-5.559h0c-.436,5.1-3.158,7.728-6,6.507h0c-2.664-1.144-.869-5.606-.736-7.734h0c.224-3.609-.011-7.739-6.566-11.173h0c2.724,5.21.315,8.448-2.211,8.645" transform="translate(-2.5 46.198)"/>
    </clipPath>
  </defs>
  <g id="g10" transform="translate(0 47.5)">
    <g id="g12" transform="translate(0 -47.5)">
      <g id="g14" clip-path="url(#clip-path)">
        <g id="g20" transform="translate(1.895 0.987)">
          <path id="path22" d="M-10.289-5.737a16.064,16.064,0,0,0-.985-5.559c-.436,5.105-3.158,7.728-6,6.507-2.665-1.144-.869-5.606-.736-7.734.224-3.609-.011-7.739-6.566-11.173,2.724,5.211.315,8.447-2.211,8.645-2.8.218-5.368-2.408-4.42-6.671A7.284,7.284,0,0,0-33.421-13.2c.987,2.565-.039,4.7-2.447,4.934-2.69.265-4.185-2.881-2.806-7.894A16.045,16.045,0,0,0-42.5-5.737,16.105,16.105,0,0,0-26.395,10.368,16.105,16.105,0,0,0-10.289-5.737" transform="translate(42.5 23.698)" fill="#f4900c"/>
        </g>
      </g>
    </g>
    <g id="g24" transform="translate(1.895 -46.513)">
      <g id="g26" clip-path="url(#clip-path-2)">
        <g id="g32" transform="translate(4.737 15.513)">
          <path id="path34" d="M-7.263-4.111A11.316,11.316,0,0,0-8.784-9.8c.139,2.922-2.427,4.067-3.808,3.514-1.994-.8-1.46-2.17-1.973-5.013a7.187,7.187,0,0,0-5.409-5.684c2.132,6-1.181,8.211-2.918,8.606-1.773.4-3.555,0-3.759-3.8A11.338,11.338,0,0,0-30-4.111,11.369,11.369,0,0,0-18.632,7.258,11.369,11.369,0,0,0-7.263-4.111" transform="translate(30 16.979)" fill="#ffcc4d"/>
        </g>
      </g>
    </g>
  </g>
</svg>
