<svg xmlns="http://www.w3.org/2000/svg" width="20" height="20" viewBox="0 0 20 20">
  <g id="Iconly_Bulk_Category" data-name="Iconly/Bulk/Category" transform="translate(-2 -2)">
    <g id="Category" transform="translate(2 2)">
      <path id="Fill-1" d="M14.075,0h3.386A2.549,2.549,0,0,1,20,2.56V5.975a2.549,2.549,0,0,1-2.538,2.56H14.075a2.549,2.549,0,0,1-2.538-2.56V2.56A2.549,2.549,0,0,1,14.075,0" fill="#1c80ef" opacity="0.4"/>
      <path id="Combined-Shape" d="M5.924,11.465a2.549,2.549,0,0,1,2.539,2.56V17.44A2.55,2.55,0,0,1,5.924,20H2.539A2.55,2.55,0,0,1,0,17.44V14.026a2.549,2.549,0,0,1,2.539-2.56Zm11.537,0A2.549,2.549,0,0,1,20,14.026V17.44A2.55,2.55,0,0,1,17.462,20H14.075a2.55,2.55,0,0,1-2.538-2.56V14.026a2.549,2.549,0,0,1,2.538-2.56ZM5.924,0A2.549,2.549,0,0,1,8.463,2.56V5.975a2.549,2.549,0,0,1-2.539,2.56H2.539A2.549,2.549,0,0,1,0,5.975V2.56A2.549,2.549,0,0,1,2.539,0Z" fill="#161f30"/>
    </g>
  </g>
</svg>
