<svg xmlns="http://www.w3.org/2000/svg" width="16" height="16" viewBox="0 0 16 16">
  <g id="_icons" transform="translate(-4 -3)">
    <path id="Path_34" data-name="Path 34" d="M19,14.781V11.5a.938.938,0,0,0-1.875,0v3.281a2.321,2.321,0,0,1-2.344,2.344H8.219a2.321,2.321,0,0,1-2.344-2.344V8.219A2.321,2.321,0,0,1,8.219,5.875H11.5a.886.886,0,0,0,.938-.937A.886.886,0,0,0,11.5,4H8.219A4.2,4.2,0,0,0,4,8.219v6.563A4.2,4.2,0,0,0,8.219,19h6.563A4.2,4.2,0,0,0,19,14.781Z" fill="#161f30"/>
    <path id="Path_35" data-name="Path 35" d="M21,9V4a.6.6,0,0,0-.1-.4,1.205,1.205,0,0,0-.5-.5A.6.6,0,0,0,20,3H15.2a.945.945,0,0,0-1,1,.945.945,0,0,0,1,1h2.4l-6.3,6.3a.967.967,0,0,0,0,1.4.967.967,0,0,0,1.4,0L19,6.4V9a1,1,0,0,0,2,0Z" transform="translate(-1)" fill="#161f30"/>
  </g>
</svg>
