<svg xmlns="http://www.w3.org/2000/svg" width="14" height="13.142" viewBox="0 0 14 13.142">
  <path id="Path_51" data-name="Path 51" d="M1.177,5.2h2.4a.677.677,0,0,0,.677-.677v-2.4a.677.677,0,0,0-.677-.677h-2.4A.677.677,0,0,0,.5,2.127v2.4A.677.677,0,0,0,1.177,5.2ZM13.823,2.648H6.069A.677.677,0,1,0,6.069,4h7.754a.677.677,0,1,0,0-1.355ZM.5,9.222a.679.679,0,0,0,.677.677h2.4a.679.679,0,0,0,.677-.677V6.82a.679.679,0,0,0-.677-.677h-2.4A.679.679,0,0,0,.5,6.82ZM13.823,7.344H6.069a.677.677,0,1,0,0,1.355h7.754a.677.677,0,1,0,0-1.355ZM.5,13.915a.676.676,0,0,0,.677.677h2.4a.676.676,0,0,0,.677-.677v-2.4a.677.677,0,0,0-.677-.677h-2.4a.677.677,0,0,0-.677.677Zm13.323-1.875H6.069a.677.677,0,1,0,0,1.355h7.754a.677.677,0,1,0,0-1.355Z" transform="translate(-0.5 -1.45)"/>
</svg>
