<svg xmlns="http://www.w3.org/2000/svg" width="37.067" height="37.039" viewBox="0 0 37.067 37.039">
  <g id="Page-1" transform="matrix(-0.719, -0.695, 0.695, -0.719, 7.656, 49.208)">
    <g id="crypto" transform="translate(0.5 0.8)">
      <g id="Etherium" transform="translate(0 0)">
        <g id="Group" transform="translate(0 0)">
          <path id="Shape" d="M32.977,30.056c-1,.665-2.063,1.264-3.061,1.863-3.261,1.93-6.455,3.793-9.716,5.723-.067,0-.067.067-.133.067A.065.065,0,0,1,20,37.643V24.267c0-.067.067-.067.133-.067.266.133.532.266.865.4.8.4,1.664.732,2.462,1.131.732.333,1.4.665,2.13.932.732.333,1.4.665,2.13,1,.6.266,1.264.532,1.863.865.6.266,1.264.532,1.863.865.466.2.932.466,1.464.665C32.91,29.99,32.91,30.056,32.977,30.056Z" transform="translate(-7.023 -8.628)" fill="#454a75"/>
          <path id="Shape-2" data-name="Shape" d="M13.577,54.968h0c-.067,0-.067,0-.133-.067-1.331-1.863-2.6-3.66-3.926-5.523l-3.993-5.59c-1.264-1.8-2.6-3.594-3.86-5.457l-1-1.4c0-.067-.067-.067-.067-.133.067,0,.067.067.133.067,1.8,1.065,3.66,2.13,5.457,3.194,2.063,1.264,4.193,2.462,6.256,3.727.333.2.732.4,1.065.6.067,0,.067.067.067.133Z" transform="translate(-0.533 -12.843)" fill="#8a92b2"/>
          <path id="Shape-3" data-name="Shape" d="M.6,33Z" transform="translate(-0.533 -11.571)" fill="gray"/>
          <path id="Shape-4" data-name="Shape" d="M.7,30.089h0c.665-.333,1.331-.6,2-.932l2.6-1.2c.665-.333,1.331-.6,2-.932.932-.466,1.93-.865,2.862-1.331.665-.266,1.331-.6,2-.865a13.3,13.3,0,0,0,1.4-.665c.067,0,.067-.067.133-.067V37.676c-.067.067-.067,0-.133,0a3.715,3.715,0,0,1-.532-.333L.833,30.156A.206.206,0,0,0,.7,30.089Z" transform="translate(-0.567 -8.594)" fill="#1c80ef"/>
          <path id="Shape-5" data-name="Shape" d="M32.944,36.8c0,.067,0,.067-.067.133-3.86,5.457-7.72,10.847-11.579,16.3-.4.6-.8,1.131-1.2,1.73V44.386c.865-.532,1.73-1.065,2.6-1.531l10.182-5.989a.065.065,0,0,1,.067-.067Z" transform="translate(-7.057 -12.843)" fill="#62688f"/>
        </g>
      </g>
    </g>
  </g>
</svg>
