<svg xmlns="http://www.w3.org/2000/svg" width="19" height="20" viewBox="0 0 19 20">
  <g id="Iconly_Bulk_Login" data-name="Iconly/Bulk/Login" transform="translate(-2.5 -2)">
    <g id="Login" transform="translate(2.5 2)">
      <path id="Fill-1" d="M4.8,4.446A4.526,4.526,0,0,1,9.388,0H14.42A4.515,4.515,0,0,1,19,4.436V15.552A4.526,4.526,0,0,1,14.41,20H9.377A4.517,4.517,0,0,1,4.8,15.562V4.446Z" fill="#1c80ef" opacity="0.4"/>
      <path id="Fill-4" d="M13.537,9.454,10.569,6.545a.79.79,0,0,0-1.106,0,.762.762,0,0,0,0,1.089L11.09,9.229H.782a.77.77,0,1,0,0,1.54H11.09L9.465,12.363a.762.762,0,0,0,0,1.089.79.79,0,0,0,1.106,0l2.968-2.909a.761.761,0,0,0,0-1.091" fill="#e1e9fe"/>
    </g>
  </g>
</svg>
