<svg xmlns="http://www.w3.org/2000/svg" width="46" height="46" viewBox="0 0 46 46">
  <g id="Group_6290" data-name="Group 6290" transform="translate(-1124 -190)">
    <g id="_001-polygon" data-name="001-polygon" transform="translate(1088 154)">
      <circle id="Ellipse_86" data-name="Ellipse 86" cx="23" cy="23" r="23" transform="translate(36 36)" fill="#0b1746"/>
    </g>
    <g id="matic_cryptocurrency_logo_icon_131424" transform="translate(1134 203)">
      <path id="Path_3721" data-name="Path 3721" d="M187.763,140.485l2.852,6.326,4.245-2.447h0v-4.9Z" transform="translate(-177.872 -132.118)" fill="#2bbdf7" fill-rule="evenodd"/>
      <path id="Path_3722" data-name="Path 3722" d="M328.248,47.683l-2.65-1-2.832-.229V61.677l4.248,2.448,3.353-6.862-2.115-6.635Z" transform="translate(-305.764 -44.009)" fill="#2891f9" fill-rule="evenodd"/>
      <path id="Path_3723" data-name="Path 3723" d="M404.054,46.553,403.07,49h0V64.22l4.249-2.448V46.553Z" transform="translate(-381.837 -44.1)" fill="#2bbdf7" fill-rule="evenodd"/>
      <path id="Path_3724" data-name="Path 3724" d="M327.015,0l-4.249,2.45L327.015,4.9l4.249-2.449Z" transform="translate(-305.764)" fill="#2b6def" fill-rule="evenodd"/>
      <path id="Path_3725" data-name="Path 3725" d="M12.746,53.8h0L8.5,49.047,0,46.456v15.22l4.248,2.449L5.462,55.7l3.036.551v0L12.746,58.7V53.8Z" transform="translate(0 -44.009)" fill="#2891f9" fill-rule="evenodd"/>
      <path id="Path_3726" data-name="Path 3726" d="M4.25,0,0,2.449,12.744,9.8l1.926-1.11,2.323-1.34Z" fill="#2b6def" fill-rule="evenodd"/>
      <path id="Path_3727" data-name="Path 3727" d="M80.692,185.92h0v10.322l4.249-2.448v-5.424Z" transform="translate(-76.441 -176.126)" fill="#2bbdf7" fill-rule="evenodd"/>
    </g>
  </g>
</svg>
