<svg xmlns="http://www.w3.org/2000/svg" width="28" height="28" viewBox="0 0 28 28">
  <g id="Group_3" data-name="Group 3" transform="translate(-1473 -23)">
    <path id="Path_2" data-name="Path 2" d="M23.944,11.595V25.722H4.278V6.056H18.405a7.389,7.389,0,0,1-.2-1.639,7.389,7.389,0,0,1,.2-1.639H4.278A3.285,3.285,0,0,0,1,6.056V25.722A3.287,3.287,0,0,0,4.278,29H23.944a3.287,3.287,0,0,0,3.278-3.278V11.595A15.012,15.012,0,0,1,23.944,11.595Zm1.639-2.262Z" transform="translate(1472 22)" fill="#161f30"/>
    <path id="Path_3" data-name="Path 3" d="M15.833,1A4.167,4.167,0,1,0,20,5.167,4.167,4.167,0,0,0,15.833,1Z" transform="translate(1481 22)" fill="#161f30"/>
  </g>
</svg>
