<svg xmlns="http://www.w3.org/2000/svg" width="30.096" height="32" viewBox="0 0 30.096 32">
  <g id="_003-ad" data-name="003-ad" transform="translate(-106.675 -0.5)">
    <path id="Path_3698" data-name="Path 3698" d="M125.447,5.007V.5h-16.7a1.858,1.858,0,0,0-1.856,1.856V5.007Z" transform="translate(-0.196)" fill="#068206"/>
    <path id="Path_3699" data-name="Path 3699" d="M386.844.5h3.342V5.007h-3.342Z" transform="translate(-259.366)" fill="#068206"/>
    <path id="Path_3700" data-name="Path 3700" d="M461.849,5.007h3.713V2.356A1.858,1.858,0,0,0,463.706.5h-1.857Z" transform="translate(-328.801)" fill="#068206"/>
    <path id="Path_3701" data-name="Path 3701" d="M106.7,91.205v14.62l-.027,10.644h28.24a1.858,1.858,0,0,0,1.856-1.856V91.205Zm16.465,5.964a1.114,1.114,0,0,1,.788-.327h2.033a3.721,3.721,0,0,1,3.057,1.5,5.3,5.3,0,0,1,.954,3.2c0,2.675-1.654,4.646-3.933,4.686-.58.01-2.031.016-2.093.016h0a1.114,1.114,0,0,1-1.114-1.11c0-.026-.009-2.613-.009-3.6,0-.818-.005-3.578-.005-3.578a1.115,1.115,0,0,1,.326-.789Zm-9,9.114a1.114,1.114,0,0,1-.644-1.437l2.777-7.291.01-.025a1.277,1.277,0,0,1,1.185-.8h0a1.277,1.277,0,0,1,1.185.794l.012.03,2.752,7.291a1.114,1.114,0,1,1-2.084.786l-.274-.726h-3.2l-.278.729A1.114,1.114,0,0,1,114.169,106.282Z" transform="translate(0 -83.97)" fill="#068206"/>
    <path id="Path_3703" data-name="Path 3703" d="M242.129,220.851h1.515l-.754-2Z" transform="translate(-125.396 -202.14)" fill="#068206"/>
    <path id="Path_3704" data-name="Path 3704" d="M354.42,199.587c0,.562,0,1.646.006,2.476.361,0,.725-.006.948-.01.868-.015,1.744-.781,1.744-2.459,0-.58-.129-2.474-1.784-2.474h-.917C354.419,197.984,354.42,199.112,354.42,199.587Z" transform="translate(-229.347 -182.02)" fill="#068206"/>
  </g>
</svg>
