<svg xmlns="http://www.w3.org/2000/svg" width="32" height="27.633" viewBox="0 0 32 27.633">
  <g id="Line" transform="translate(-2 -5.005)">
    <path id="Path_3694" data-name="Path 3694" d="M12.182,16h-8A2.182,2.182,0,0,0,2,18.182v5.091a2.182,2.182,0,0,0,2.182,2.182h8Z" transform="translate(0 -2.999)" fill="#ee8930"/>
    <path id="Path_3695" data-name="Path 3695" d="M34.5,5.379a2.182,2.182,0,0,0-2.087-.2L18,12.543V22.921l14.407,7.4a2.756,2.756,0,0,0,2.095-.2,2.182,2.182,0,0,0,.953-1.8V7.183a2.182,2.182,0,0,0-.953-1.8Z" transform="translate(-4.364 0)" fill="#ee8930"/>
    <path id="Path_3696" data-name="Path 3696" d="M14.346,31H8.47l2.036,7.142a2.182,2.182,0,0,0,2.1,1.585h1.338a2.255,2.255,0,0,0,2.095-2.778Z" transform="translate(-1.765 -7.09)" fill="#ee8930"/>
    <path id="Path_3697" data-name="Path 3697" d="M44,19.18v4.829a2.182,2.182,0,0,0,1.455-2.051v-.727A2.182,2.182,0,0,0,44,19.18Z" transform="translate(-11.455 -3.866)" fill="#ee8930"/>
  </g>
</svg>
