<svg xmlns="http://www.w3.org/2000/svg" width="20" height="20" viewBox="0 0 20 20">
  <g id="_001-polygon" data-name="001-polygon" transform="translate(-36 -36)">
    <circle id="Ellipse_86" data-name="Ellipse 86" cx="10" cy="10" r="10" transform="translate(36 36)" fill="#555abe"/>
    <path id="Path_3707" data-name="Path 3707" d="M94.1,99.116a.887.887,0,0,0-.835,0l-1.95,1.149L89.989,101l-1.915,1.149a.887.887,0,0,1-.835,0l-1.5-.905a.849.849,0,0,1-.418-.731V98.768a.859.859,0,0,1,.418-.731l1.5-.87a.887.887,0,0,1,.835,0l1.5.905a.849.849,0,0,1,.418.731v1.149l1.323-.766V98a.859.859,0,0,0-.418-.731l-2.785-1.636a.887.887,0,0,0-.835,0l-2.855,1.671A.766.766,0,0,0,84,98v3.272a.859.859,0,0,0,.418.731l2.82,1.636a.887.887,0,0,0,.835,0l1.915-1.114,1.323-.766,1.915-1.114a.887.887,0,0,1,.835,0l1.5.87a.849.849,0,0,1,.418.731v1.741a.859.859,0,0,1-.418.731l-1.462.87a.887.887,0,0,1-.835,0l-1.5-.87a.849.849,0,0,1-.418-.731v-1.114l-1.323.766v1.149a.859.859,0,0,0,.418.731l2.82,1.636a.887.887,0,0,0,.835,0l2.82-1.636a.849.849,0,0,0,.418-.731v-3.307a.859.859,0,0,0-.418-.731Z" transform="translate(-44.668 -55.396)" fill="#fff"/>
  </g>
</svg>
