<svg xmlns="http://www.w3.org/2000/svg" width="20.968" height="26" viewBox="0 0 20.968 26">
  <g id="_001-sand-clock" data-name="001-sand-clock" transform="translate(-37.226)">
    <g id="Group_701" data-name="Group 701" transform="translate(37.226 0)">
      <path id="Path_3641" data-name="Path 3641" d="M57.355,26a.839.839,0,1,0,0-1.677H55.678v-4.5a2.95,2.95,0,0,0-1.006-2.218l-4.177-3.653A1.243,1.243,0,0,1,50.062,13a1.258,1.258,0,0,1,.432-.956l4.177-3.653a2.936,2.936,0,0,0,1.006-2.218v-4.5h1.677a.839.839,0,1,0,0-1.677H38.065a.839.839,0,0,0,0,1.677h1.677V6.584a2.93,2.93,0,0,0,1.019,2.227l3.724,3.229a1.26,1.26,0,0,1,.44.96,1.246,1.246,0,0,1-.44.96l-3.724,3.225a2.945,2.945,0,0,0-1.019,2.231v4.906H38.065a.839.839,0,0,0,0,1.677h19.29ZM54,24.322H41.42V19.416a1.277,1.277,0,0,1,.436-.96l3.724-3.225a2.942,2.942,0,0,0,0-4.454L41.856,7.548a1.286,1.286,0,0,1-.436-.965V1.677H54v4.5a1.275,1.275,0,0,1-.436.956l-4.177,3.653a2.948,2.948,0,0,0,0,4.437l4.181,3.653a1.27,1.27,0,0,1,.432.956v4.5Z" transform="translate(-37.226 0)" fill="#e20"/>
      <path id="Path_3642" data-name="Path 3642" d="M118.182,194.926a3.535,3.535,0,0,1-1.019-1.443,3.41,3.41,0,0,1-.193-1.086v-.063h-.122v.059a3.37,3.37,0,0,1-1.153,2.487l-3.724,3.229a.857.857,0,0,0-.294.642v3.695a.374.374,0,0,0,.373.373h10.157a.374.374,0,0,0,.373-.373v-3.284a.853.853,0,0,0-.289-.642Z" transform="translate(-106.646 -179.334)" fill="#e20"/>
    </g>
  </g>
</svg>
