<svg xmlns="http://www.w3.org/2000/svg" width="16" height="14.4" viewBox="0 0 16 14.4">
  <path id="Path_37" data-name="Path 37" d="M17.766,9.634l-6.4-6.4A.8.8,0,0,0,10,3.8V6.636A8.812,8.812,0,0,0,2,15.4v1.2a.8.8,0,0,0,1.427.5,9.165,9.165,0,0,1,6.309-3.239c.04-.005.14-.013.263-.021V16.6a.8.8,0,0,0,1.366.566l6.4-6.4A.8.8,0,0,0,17.766,9.634ZM11.6,14.669V13a.8.8,0,0,0-.8-.8c-.2,0-1.037.039-1.249.068a11.2,11.2,0,0,0-5.909,2.359A7.21,7.21,0,0,1,10.8,8.2a.8.8,0,0,0,.8-.8V5.731L16.069,10.2Z" transform="translate(-2 -3)" fill="#161f30"/>
</svg>
