<svg xmlns="http://www.w3.org/2000/svg" width="35.875" height="36" viewBox="0 0 35.875 36">
  <g id="g10" transform="translate(-1.25 46.25)">
    <g id="g12" transform="translate(1.25 -46.25)">
      <path id="path14" d="M-5.576,0-9.562,8l-4.983-5v7L-24.51,8l7.972,8L-27.5,22h11.958l-5.979,12,11.958-8L1.4,36-1.59,22H8.375L.4,16,8.375,7-3.583,10Z" transform="translate(27.5)" fill="#bb1a34"/>
    </g>
    <g id="g16" transform="translate(9.864 -39.995)">
      <path id="path18" d="M-2.411-1.05l1.989-.5,5.589-1.4L1.552,1.129.141,2.723,1.842,4,4.969,6.356H-1.359l.506,2.373L.805,16.492l-6.251-5.7-1.13-1.031-1.269.85-5.6,3.749L-10.877,9.2l1.415-2.839h-7.226l4.021-2.2L-10.374,2.9l-1.847-1.855L-15.476-2.22l3.445.691,2.338.469V-5.582l1.551,1.556L-6.224-2.1l1.212-2.435L-3.651-7.27" transform="translate(16.689 7.27)" fill="#fcab40"/>
    </g>
    <g id="g20" transform="translate(16.837 -34.686)">
      <path id="path22" d="M-1-.433l.821-.205,2.307-.579L.64.467l-.583.658.7.527,1.292.972H-.562l.21.98L.332,6.809-2.249,4.455l-.466-.426-.525.351L-5.553,5.929-4.491,3.8l.584-1.173H-6.89l1.661-.908.946-.519L-5.045.432-6.388-.917l1.42.286L-4-.437V-2.3l.641.642.791.795.5-1L-1.507-3" transform="translate(6.89 3)" fill="#f5f8fa"/>
    </g>
  </g>
</svg>
