<svg xmlns="http://www.w3.org/2000/svg" width="19.847" height="20" viewBox="0 0 19.847 20">
  <g id="_001-verified" data-name="001-verified" transform="translate(-19.775 -19.312)">
    <path id="Path_3614" data-name="Path 3614" d="M39.5,27.6l-.47,1.163a1.706,1.706,0,0,0,0,1.212l.47,1.163a1.633,1.633,0,0,1-.569,1.93l-1.039.717a1.76,1.76,0,0,0-.668,1.014L37,36.032a1.605,1.605,0,0,1-1.509,1.311l-1.262.049a1.711,1.711,0,0,0-1.113.495l-.866.915a1.619,1.619,0,0,1-1.979.3l-1.088-.643a1.6,1.6,0,0,0-1.212-.173l-1.237.3a1.644,1.644,0,0,1-1.831-.841L24.333,36.6a1.6,1.6,0,0,0-.915-.792l-1.187-.4a1.609,1.609,0,0,1-1.088-1.682l.124-1.262a1.521,1.521,0,0,0-.346-1.163l-.792-.99a1.6,1.6,0,0,1,0-2l.792-.99a1.521,1.521,0,0,0,.346-1.163L21.142,24.9a1.609,1.609,0,0,1,1.088-1.682l1.187-.4a1.6,1.6,0,0,0,.915-.792l.569-1.138a1.63,1.63,0,0,1,1.831-.841l1.237.3a1.613,1.613,0,0,0,1.212-.173l1.088-.643a1.586,1.586,0,0,1,1.979.3l.866.915a1.6,1.6,0,0,0,1.113.495l1.262.049A1.584,1.584,0,0,1,37,22.6l.223,1.237a1.526,1.526,0,0,0,.668,1.014l1.039.717A1.777,1.777,0,0,1,39.5,27.6Z" transform="translate(0 0)" fill="#ebdd1d"/>
    <g id="Group_679" data-name="Group 679" transform="translate(19.775 19.319)" opacity="0.15">
      <path id="Path_3615" data-name="Path 3615" d="M25.619,39.787l-.569-1.138a1.6,1.6,0,0,0-.915-.792l-1.187-.4a1.609,1.609,0,0,1-1.088-1.682l.124-1.262a1.521,1.521,0,0,0-.346-1.163l-.792-.99a1.6,1.6,0,0,1,0-2l.792-.99a1.521,1.521,0,0,0,.346-1.163l-.124-1.262a1.609,1.609,0,0,1,1.088-1.682l1.187-.4a1.6,1.6,0,0,0,.915-.792l.569-1.138a1.588,1.588,0,0,1,.915-.792,1.561,1.561,0,0,0-1.633.866l-.569,1.138a1.6,1.6,0,0,1-.915.792l-1.187.4a1.609,1.609,0,0,0-1.088,1.682l.124,1.262a1.521,1.521,0,0,1-.346,1.163l-.792.99a1.6,1.6,0,0,0,0,2l.792.99a1.521,1.521,0,0,1,.346,1.163l-.124,1.262a1.609,1.609,0,0,0,1.088,1.682l1.187.4a1.6,1.6,0,0,1,.915.792l.569,1.138a1.63,1.63,0,0,0,1.831.841l.148-.025A1.7,1.7,0,0,1,25.619,39.787Z" transform="translate(-19.775 -21.441)"/>
      <path id="Path_3616" data-name="Path 3616" d="M57.514,20.121l1.088-.643a1.513,1.513,0,0,1,.3-.124,1.6,1.6,0,0,0-1.014.2L56.8,20.2a1.513,1.513,0,0,1-.3.124A1.484,1.484,0,0,0,57.514,20.121Z" transform="translate(-47.415 -19.339)"/>
      <path id="Path_3617" data-name="Path 3617" d="M79.946,91.849a1.46,1.46,0,0,0-.346.049l.891-.049a1.67,1.67,0,0,0,.346-.049Z" transform="translate(-64.801 -73.875)"/>
      <path id="Path_3618" data-name="Path 3618" d="M57.549,96.269l-1.088-.643a1.6,1.6,0,0,0-1.212-.173l-.148.025a1.811,1.811,0,0,1,.618.2l1.088.643a1.588,1.588,0,0,0,1.336.124A1.094,1.094,0,0,1,57.549,96.269Z" transform="translate(-46.361 -76.587)"/>
    </g>
    <path id="Path_3619" data-name="Path 3619" d="M44,48.858,47.092,52.4l6.333-5.1" transform="translate(-18.232 -21.065)" fill="#ebdd1d"/>
    <path id="Path_3620" data-name="Path 3620" d="M40.3,52.2a1.278,1.278,0,0,1-.94-.421l-3.092-3.537a1.244,1.244,0,0,1,1.855-1.657l2.325,2.647,5.418-4.354a1.232,1.232,0,1,1,1.534,1.93L41.07,51.929A1.261,1.261,0,0,1,40.3,52.2Z" transform="translate(-12.186 -19.039)"/>
  </g>
</svg>
