<svg xmlns="http://www.w3.org/2000/svg" width="22.002" height="19.65" viewBox="0 0 22.002 19.65">
  <g id="you_tube" transform="translate(-5638 -6379)">
    <path id="Path_11" data-name="Path 11" d="M28.608,14.1a3.231,3.231,0,0,1,1.939,2.474A44.7,44.7,0,0,1,31,23.347a47.073,47.073,0,0,1-.453,6.751,3.231,3.231,0,0,1-1.939,2.474C26.886,33.15,20,33.15,20,33.15s-6.868,0-8.608-.6a3.231,3.231,0,0,1-1.939-2.474A46.9,46.9,0,0,1,9,23.324a47.073,47.073,0,0,1,.453-6.751,3.306,3.306,0,0,1,1.939-2.5C13.114,13.5,20,13.5,20,13.5S26.886,13.5,28.608,14.1Zm-5.074,9.225-5.727,4.208V19.116Z" transform="translate(5629 6365.5)" fill="#272f3e"/>
    <path id="Path_11-2" data-name="Path 11" d="M28.608,14.1a3.231,3.231,0,0,1,1.939,2.474A44.7,44.7,0,0,1,31,23.347a47.073,47.073,0,0,1-.453,6.751,3.231,3.231,0,0,1-1.939,2.474C26.886,33.15,20,33.15,20,33.15s-6.868,0-8.608-.6a3.231,3.231,0,0,1-1.939-2.474A46.9,46.9,0,0,1,9,23.324a47.073,47.073,0,0,1,.453-6.751,3.306,3.306,0,0,1,1.939-2.5C13.114,13.5,20,13.5,20,13.5S26.886,13.5,28.608,14.1Zm-5.074,9.225-5.727,4.208V19.116Z" transform="translate(5629 6365.5)" fill="#272f3e"/>
    <path id="Intersection_1" data-name="Intersection 1" d="M8.8,5.573l5.625,4.295L8.8,14.027Z" transform="translate(5638 6379)" fill="#fff"/>
  </g>
</svg>
