<svg id="Group_56" data-name="Group 56" xmlns="http://www.w3.org/2000/svg" width="22" height="19.653" viewBox="0 0 22 19.653">
  <g id="Group_55" data-name="Group 55">
    <path id="Path_11" data-name="Path 11" d="M28.608,14.1a3.231,3.231,0,0,1,1.939,2.474A44.7,44.7,0,0,1,31,23.347a47.073,47.073,0,0,1-.453,6.751,3.231,3.231,0,0,1-1.939,2.474C26.886,33.15,20,33.15,20,33.15s-6.868,0-8.608-.6a3.231,3.231,0,0,1-1.939-2.474A46.9,46.9,0,0,1,9,23.324a47.074,47.074,0,0,1,.453-6.751,3.306,3.306,0,0,1,1.939-2.5C13.114,13.5,20,13.5,20,13.5S26.886,13.5,28.608,14.1Zm-5.074,9.225-5.727,4.208V19.116Z" transform="translate(-9 -13.498)" fill="#272f3e"/>
  </g>
</svg>
